Coordinates
version=1
nRows=6
nColumns=63
inDegrees=yes

Units are S.I. units (second, meters, Newtons, ...)
If the header above contains a line with 'inDegrees', this indicates whether rotational values are in degrees (yes) or radians (no).

endheader
time	pelvis_tilt	pelvis_list	pelvis_rotation	pelvis_tx	pelvis_ty	pelvis_tz	hip_flexion_r	hip_adduction_r	hip_rotation_r	knee_angle_r	knee_angle_r_beta	ankle_angle_r	subtalar_angle_r	mtp_angle_r	hip_flexion_l	hip_adduction_l	hip_rotation_l	knee_angle_l	knee_angle_l_beta	ankle_angle_l	subtalar_angle_l	mtp_angle_l	L5_S1_Flex_Ext	L5_S1_Lat_Bending	L5_S1_axial_rotation	L4_L5_Flex_Ext	L4_L5_Lat_Bending	L4_L5_axial_rotation	L3_L4_Flex_Ext	L3_L4_Lat_Bending	L3_L4_axial_rotation	L2_L3_Flex_Ext	L2_L3_Lat_Bending	L2_L3_axial_rotation	L1_L2_Flex_Ext	L1_L2_Lat_Bending	L1_L2_axial_rotation	L1_T12_Flex_Ext	L1_T12_Lat_Bending	L1_T12_axial_rotation	Abs_r3	Abs_r2	Abs_r1	Abs_t1	Abs_t2	neck_flexion	neck_bending	neck_rotation	arm_flex_r	arm_add_r	arm_rot_r	elbow_flex_r	pro_sup_r	wrist_flex_r	wrist_dev_r	arm_flex_l	arm_add_l	arm_rot_l	elbow_flex_l	pro_sup_l	wrist_flex_l	wrist_dev_l
6.964912	-0.272444	-0.675777	111.884846	0.213069	0.885499	0.617092	-4.641001	1.223698	-14.664155	7.210272	0.125843	31.564834	-9.143330	0.000000	-4.895236	-1.346043	23.272748	1.085844	0.018952	31.547579	-3.816899	0.000000	0.094812	-0.302866	-2.420758	0.176076	-0.402812	-2.572055	0.155767	-0.736389	-2.572055	0.108361	-0.736389	-2.118163	0.088043	-0.617605	-1.966866	0.054176	-0.469140	-1.815568	0.677235	-3.426085	-13.463529	0.000000	0.000000	4.488753	-11.254193	0.322236	7.232178	-41.022578	23.604828	94.457926	86.770177	10.085181	-4.134952	30.273572	-22.164243	52.941021	81.455552	66.258099	14.953109	0.205241
6.982456	-0.199121	-0.681461	111.905094	0.212627	0.885470	0.617352	-4.572186	1.244298	-14.887225	7.295082	0.127323	31.555476	-8.957258	0.000000	-4.863994	-1.385976	23.400887	1.137260	0.019849	31.397695	-4.073381	0.000000	0.100734	-0.293306	-2.438171	0.187073	-0.390097	-2.590556	0.165495	-0.713144	-2.590556	0.115129	-0.713144	-2.133399	0.093541	-0.598109	-1.981014	0.057559	-0.454331	-1.828628	0.719531	-3.317934	-13.560373	0.000000	0.000000	4.589289	-11.198249	0.431498	7.476253	-40.967493	23.484030	94.267422	87.301752	9.877479	-3.998281	30.393827	-21.954313	52.734375	81.146263	66.166225	14.187107	-0.389140
7.000000	-0.142434	-0.674541	111.935021	0.212235	0.885446	0.617559	-4.540753	1.263487	-15.128592	7.379723	0.128800	31.488350	-8.824228	0.000000	-4.852540	-1.419722	23.508443	1.190861	0.020784	31.185613	-4.314773	0.000000	0.105017	-0.286551	-2.456281	0.195026	-0.381112	-2.609798	0.172532	-0.696719	-2.609798	0.120023	-0.696719	-2.149246	0.097518	-0.584334	-1.995728	0.060006	-0.443867	-1.842211	0.750123	-3.241517	-13.661097	0.000000	0.000000	4.614885	-11.159358	0.498105	7.750854	-40.900500	23.486911	93.907504	87.755974	9.671640	-3.904957	30.562148	-21.774363	52.622282	80.781326	65.942911	13.896628	-0.665295
7.017544	-0.101125	-0.660222	111.978547	0.211911	0.885414	0.617728	-4.537324	1.282135	-15.369967	7.464628	0.130282	31.366227	-8.760121	0.000000	-4.852762	-1.449137	23.602063	1.244675	0.021724	30.918301	-4.535461	0.000000	0.107914	-0.283121	-2.475710	0.200407	-0.376551	-2.630442	0.177292	-0.688380	-2.630442	0.123335	-0.688380	-2.166247	0.100209	-0.577340	-2.011515	0.061662	-0.438554	-1.856783	0.770818	-3.202721	-13.769159	0.000000	0.000000	4.580726	-11.118912	0.501326	8.052250	-40.809128	23.597287	93.394565	88.129148	9.416140	-3.833464	30.745881	-21.635674	52.564249	80.415736	65.679943	13.998193	-0.586414
7.035088	-0.074702	-0.629797	112.033752	0.211642	0.885390	0.617873	-4.568354	1.302293	-15.607293	7.547434	0.131728	31.203718	-8.744725	0.000000	-4.865399	-1.477947	23.422931	1.308131	0.022831	30.679576	-4.374087	0.000000	0.107628	-0.282682	-2.493613	0.199877	-0.375967	-2.649463	0.176823	-0.687313	-2.649463	0.123008	-0.687313	-2.181911	0.099944	-0.576445	-2.026060	0.061499	-0.437874	-1.870209	0.768779	-3.197753	-13.868725	0.000000	0.000000	4.513514	-11.063604	0.406768	8.362663	-40.684149	23.749329	92.745774	88.450699	9.090196	-3.795602	30.917601	-21.523964	52.517715	80.061507	65.257651	14.421430	-0.192942
7.052632	-0.075485	-0.587019	112.121783	0.211422	0.885376	0.617976	-4.642755	1.316792	-15.832881	7.606873	0.132765	31.017709	-8.783984	0.000000	-4.895000	-1.496463	23.154198	1.369300	0.023899	30.449681	-4.030289	0.000000	0.104462	-0.287325	-2.514042	0.193997	-0.382142	-2.671169	0.171621	-0.698601	-2.671169	0.119390	-0.698601	-2.199786	0.097004	-0.585912	-2.042659	0.059690	-0.445066	-1.885531	0.746165	-3.250274	-13.982345	0.000000	0.000000	4.431313	-10.966887	0.200597	8.665860	-40.521056	23.907962	92.006762	88.717740	8.643200	-3.794130	31.037964	-21.440956	52.432174	79.759463	64.739987	14.951723	0.405471
